<?xml version="1.0" encoding="iso-8859-1"?>
<!-- Uploaded to: SVG Repo, www.svgrepo.com, Generator: SVG Repo Mixer Tools -->
<svg fill="#000000" version="1.1" id="Layer_1" xmlns="http://www.w3.org/2000/svg" xmlns:xlink="http://www.w3.org/1999/xlink" 
	 viewBox="0 0 290.626 290.626" xml:space="preserve">
<g>
	<g>
		<g>
			<rect x="65.625" y="178.125" width="9.375" height="28.125"/>
			<path d="M243.75,32.813v14.063h-46.875V0H93.75v46.875H46.875V32.813H0v257.813h290.625V32.813H243.75z M37.5,281.25H9.375
				v-28.125H37.5V281.25z M37.5,243.75H9.375V42.188h9.375v9.375h9.375v-9.375H37.5V243.75z M93.75,281.25H46.875v-28.125H93.75
				V281.25z M93.75,243.751H46.875v-89.063H93.75V243.751z M93.75,145.313h-9.375v-28.125H75v28.125h-9.375v-28.125H56.25v28.125
				h-9.375V56.25h9.375v9.375h9.375V56.25H75v9.375h9.375V56.25h9.375V145.313z M103.125,9.375h9.375v9.375h9.375V9.375h9.375v9.375
				h9.375V9.375H150v9.375h9.375V9.375h9.375v9.375h9.375V9.375h9.375V75h-5.011c-2.32-18.469-18.089-32.813-37.177-32.813
				S110.456,56.531,108.136,75h-5.011V9.375z M187.5,84.375v32.813h-4.688V84.375H187.5z M173.438,98.438v18.75h-4.688v-18.75
				H173.438z M168.75,89.063v-4.688c0-12.923-10.514-23.438-23.438-23.438s-23.438,10.514-23.438,23.438v4.688h-4.688v-9.375
				c0-15.511,12.614-28.125,28.125-28.125c15.511,0,28.125,12.614,28.125,28.125v9.375H168.75z M159.377,84.375v32.813h-0.001
				H131.25V84.375c0-7.753,6.309-14.063,14.063-14.063C153.068,70.312,159.377,76.621,159.377,84.375z M121.877,98.438v18.75h-4.688
				v-18.75H121.877z M103.125,84.375h4.688v32.813h-4.688V84.375z M103.125,126.563H187.5v9.375h-84.375V126.563z M103.125,145.313
				H187.5v37.5h-5.011C180.169,164.344,164.401,150,145.313,150c-19.087,0-34.856,14.344-37.177,32.813h-5.011V145.313z
				 M124.471,253.125h41.682l5.859,9.375h-53.4L124.471,253.125z M117.188,243.75v-37.5h4.688v37.5H117.188z M131.25,243.75v-51.563
				c0-7.753,6.309-14.063,14.063-14.063c7.754,0,14.063,6.309,14.063,14.063v51.563H131.25z M168.75,243.75v-37.5h4.688v37.5H168.75
				z M168.75,196.875v-4.688c0-12.923-10.514-23.438-23.438-23.438s-23.438,10.514-23.438,23.438v4.688h-4.688V187.5
				c0-15.511,12.614-28.125,28.125-28.125c15.511,0,28.125,12.614,28.125,28.125v9.375H168.75z M103.125,192.188h4.688v51.563
				h-4.688V192.188z M103.125,253.125h10.294l-10.294,16.467V253.125z M106.893,281.25l5.86-9.375h65.114l5.859,9.375H106.893z
				 M187.5,269.592l-10.294-16.467H187.5V269.592z M187.502,243.75h-4.688v-51.563h4.688V243.75z M243.75,281.25h-46.875v-28.125
				h46.875V281.25z M243.75,243.751h-46.875v-89.063h46.875V243.751z M243.75,145.313h-9.375v-28.125H225v28.125h-9.375v-28.125
				h-9.375v28.125h-9.375V56.25h9.375v9.375h9.375V56.25H225v9.375h9.375V56.25h9.375V145.313z M281.25,281.25h-28.125v-28.125
				h28.125V281.25z M281.25,243.75h-28.125V42.188h9.375v9.375h9.375v-9.375h9.375V243.75z"/>
			<rect x="215.625" y="178.125" width="9.375" height="28.125"/>
			<rect x="18.75" y="229.688" width="9.375" height="9.375"/>
			<rect x="18.75" y="210.938" width="9.375" height="9.375"/>
			<rect x="18.75" y="192.188" width="9.375" height="9.375"/>
			<rect x="18.75" y="79.688" width="9.375" height="9.375"/>
			<rect x="18.75" y="60.938" width="9.375" height="9.375"/>
			<rect x="262.5" y="229.688" width="9.375" height="9.375"/>
			<rect x="262.5" y="210.938" width="9.375" height="9.375"/>
			<rect x="262.5" y="192.188" width="9.375" height="9.375"/>
			<rect x="262.5" y="79.688" width="9.375" height="9.375"/>
			<rect x="262.5" y="60.938" width="9.375" height="9.375"/>
			<rect x="140.625" y="225" width="9.375" height="9.375"/>
			<rect x="140.625" y="206.25" width="9.375" height="9.375"/>
		</g>
	</g>
</g>
</svg>